<?xml version="1.0" encoding="utf-8"?>
<!-- Generator: Adobe Illustrator 17.1.0, SVG Export Plug-In . SVG Version: 6.00 Build 0)  -->
<!DOCTYPE svg PUBLIC "-//W3C//DTD SVG 1.1//EN" "http://www.w3.org/Graphics/SVG/1.1/DTD/svg11.dtd">
<svg version="1.1" id="Layer_1" xmlns="http://www.w3.org/2000/svg" xmlns:xlink="http://www.w3.org/1999/xlink" x="0px" y="0px"
	 viewBox="126.7 126.7 30 30" enable-background="new 126.7 126.7 30 30" xml:space="preserve">
<g id="Linkedin">
	<path fill="#3d4349" d="M136.6,150.7v-12.1h-4v12.1H136.6L136.6,150.7z M134.6,136.9c1.4,0,2.3-0.9,2.3-2.1c0-1.2-0.9-2.1-2.3-2.1
		c-1.4,0-2.3,0.9-2.3,2.1C132.3,136,133.2,136.9,134.6,136.9L134.6,136.9L134.6,136.9z"/>
	<path fill="#3d4349" d="M138.8,150.7h4v-6.8c0-0.4,0-0.7,0.1-1c0.3-0.7,1-1.5,2.1-1.5c1.5,0,2,1.1,2,2.7v6.5h4v-7
		c0-3.7-2-5.5-4.6-5.5c-2.2,0-3.1,1.2-3.7,2h0v-1.8h-4C138.9,139.7,138.8,150.7,138.8,150.7L138.8,150.7z"/>
</g>
</svg>
