<?xml version="1.0" encoding="utf-8"?>
<!-- Generator: Adobe Illustrator 17.1.0, SVG Export Plug-In . SVG Version: 6.00 Build 0)  -->
<!DOCTYPE svg PUBLIC "-//W3C//DTD SVG 1.1//EN" "http://www.w3.org/Graphics/SVG/1.1/DTD/svg11.dtd">
<svg version="1.1" id="Layer_1" xmlns="http://www.w3.org/2000/svg" xmlns:xlink="http://www.w3.org/1999/xlink" x="0px" y="0px"
	 viewBox="126.7 126.7 30 30" enable-background="new 126.7 126.7 30 30" xml:space="preserve">
<g id="RSS">
	<g id="lines__x003C_Group_x003E_">
		<path id="circle" fill="#3d4349" d="M137.5,148.3c0,1.3-1.1,2.4-2.4,2.4c-1.3,0-2.4-1.1-2.4-2.4c0-1.3,1.1-2.4,2.4-2.4
			C136.5,145.9,137.5,147,137.5,148.3z"/>
		<g>
			<path fill="#3d4349" d="M132.8,142.3c2.2,0,4.3,0.9,5.9,2.5c1.6,1.6,2.5,3.7,2.5,6h3.4c0-6.6-5.3-11.9-11.8-11.9
				C132.8,138.8,132.8,142.3,132.8,142.3z"/>
		</g>
		<g>
			<path fill="#3d4349" d="M132.8,136.2c8,0,14.5,6.5,14.5,14.6h3.4c0-9.9-8-18-17.9-18C132.8,132.7,132.8,136.2,132.8,136.2z"/>
		</g>
	</g>
</g>
</svg>
