<?xml version="1.0" encoding="utf-8"?>
<!-- Generator: Adobe Illustrator 17.1.0, SVG Export Plug-In . SVG Version: 6.00 Build 0)  -->
<!DOCTYPE svg PUBLIC "-//W3C//DTD SVG 1.1//EN" "http://www.w3.org/Graphics/SVG/1.1/DTD/svg11.dtd">
<svg version="1.1" id="Layer_1" xmlns="http://www.w3.org/2000/svg" xmlns:xlink="http://www.w3.org/1999/xlink" x="0px" y="0px"
	 viewBox="126.7 126.7 30 30" enable-background="new 126.7 126.7 30 30" xml:space="preserve">
<g id="Google_x2B_">
	<g>
		<path fill="#3d4349" d="M139.2,141.1c0-1.2,2.6-1.5,2.6-4.3c0-1.7-0.2-2.6-1.5-3.2c0-0.4,2.3-0.1,2.3-0.9c-0.4,0-5,0-5,0
			s-5.1,0.1-5.1,4.4c0,4.3,4.5,3.8,4.5,3.8s0,0.7,0,1.1c0,0.4,0.6,0.3,0.7,1.2c-0.3,0-6.2-0.2-6.2,3.7c0,3.9,5.2,3.7,5.2,3.7
			s6,0.3,6-4.6C142.6,143.2,139.2,142.3,139.2,141.1z M134.8,137.4c-0.5-1.7,0.1-3.4,1.4-3.7c1.2-0.3,2.6,0.8,3.1,2.5
			c0.5,1.7-0.1,3.4-1.4,3.7C136.7,140.3,135.3,139.2,134.8,137.4z M137.4,149.5c-2.1,0.1-3.8-1-3.9-2.5c-0.1-1.5,1.5-2.9,3.6-3
			c2.1-0.1,3.8,1,3.9,2.5C141.1,148,139.5,149.3,137.4,149.5z"/>
		<polygon fill="#3d4349" points="152,136.2 152,137.3 148.5,137.3 148.5,140.8 147.5,140.8 147.5,137.3 144,137.3 144,136.2 
			147.5,136.2 147.5,132.7 148.5,132.7 148.5,136.2 		"/>
	</g>
</g>
</svg>
